#tb 0: 1/25
#media_type 0: video
#codec_id 0: rawvideo
#dimensions 0: 352x288
#sar 0: 0/1
0,          0,          0,        1,   102400, 0x784e6f8e
0,          1,          1,        1,   102400, 0x43c7d662
0,          2,          2,        1,   102400, 0x74ecb859
0,          3,          3,        1,   102400, 0xc03929c3
0,          4,          4,        1,   102400, 0xbad660b1
